<svg width="1024" height="1024" viewBox="0 0 1024 1024" fill="none" xmlns="http://www.w3.org/2000/svg">
<path d="M540.621 737.335C533.572 742.509 523.89 741.782 517.642 735.809L501.831 720.692C494.827 713.996 494.429 703.043 500.675 695.8C522.686 670.276 540.121 646.772 553.063 625.278C566.746 602.196 572.527 584.827 572.215 572.591C571.976 563.235 568.323 555.746 560.812 549.637L560.072 549.049L559.746 548.796L559.448 548.511C556.618 545.806 548.568 538.955 534.94 527.71C520.626 516.401 508.056 502.993 497.228 487.524L496.183 486.017L496.137 485.949L496.092 485.881C485.584 469.89 480.37 448.967 479.729 423.801C478.711 383.862 489.895 350.248 513.753 323.657L513.821 323.58L513.892 323.506C538.918 297.01 570.506 283.281 608.116 282.322C646.846 281.335 680.241 293.345 707.789 318.423L709.052 319.588C735.383 344.16 748.855 376.868 749.876 416.916C751.138 466.454 731.719 521.337 692.937 581.314L692.912 581.354L692.885 581.393C654.701 638.927 603.898 690.894 540.621 737.335Z" stroke="white" stroke-width="16"/>
<path d="M329.546 738.529C323.305 742.877 314.884 742.176 309.416 736.947L291.016 719.355C284.792 713.404 284.432 703.664 290.005 697.232C312.606 671.153 330.455 647.169 343.641 625.271C357.325 602.19 363.106 584.821 362.795 572.585C362.557 563.229 358.904 555.739 351.393 549.63L350.653 549.042L350.327 548.79L350.029 548.504C347.199 545.799 339.149 538.948 325.522 527.702C311.208 516.393 298.639 502.985 287.811 487.515L286.766 486.008L286.72 485.941L286.675 485.872C276.168 469.881 270.955 448.958 270.314 423.792C269.298 383.852 280.483 350.239 304.342 323.649L304.41 323.572L304.48 323.498C329.508 297.003 361.097 283.275 398.706 282.317C437.437 281.332 470.831 293.342 498.378 318.422L499.641 319.587C525.971 344.16 539.442 376.868 540.461 416.916C541.722 466.454 522.301 521.337 483.517 581.312L483.492 581.352L483.464 581.392C445.007 639.334 393.75 691.628 329.842 738.318L329.546 738.529Z" stroke="white" stroke-width="16"/>
</svg>
